<?xml version="1.0" encoding="utf-8"?>
<!-- Generator: Adobe Illustrator 19.1.0, SVG Export Plug-In . SVG Version: 6.00 Build 0)  -->
<svg version="1.1" xmlns="http://www.w3.org/2000/svg" xmlns:xlink="http://www.w3.org/1999/xlink" x="0px" y="0px" width="519px"
	 height="349px" viewBox="0 0 519 349" style="enable-background:new 0 0 519 349;" xml:space="preserve">
<style type="text/css">
	.st0{fill:#0057A1;}
	.st1{fill:#FFD12F;}
	.st2{fill:#434343;}
</style>
<g id="EUROPEAN_UNION">
	<rect class="st0" width="519" height="349"/>
	<polygon class="st1" points="160.3,96.9 164.6,110.3 178.7,110.3 167.3,118.6 171.7,132 160.3,123.7 148.9,132 153.2,118.6 
		141.8,110.3 155.9,110.3 	"/>
	<polygon class="st1" points="201,55.5 205.3,68.9 219.4,68.9 208,77.2 212.4,90.6 201,82.3 189.6,90.6 193.9,77.2 182.5,68.9 
		196.6,68.9 	"/>
	<polygon class="st1" points="259,39.9 263.3,53.3 277.4,53.3 266,61.5 270.4,74.9 259,66.7 247.6,74.9 251.9,61.5 240.5,53.3 
		254.6,53.3 	"/>
	<polygon class="st1" points="316.3,55.6 320.7,69 334.7,69 323.3,77.2 327.7,90.6 316.3,82.4 304.9,90.6 309.3,77.2 297.9,69 
		312,69 	"/>
	<polygon class="st1" points="358.5,97.8 362.9,111.2 377,111.2 365.6,119.5 369.9,132.9 358.5,124.6 347.1,132.9 351.5,119.5 
		340.1,111.2 354.2,111.2 	"/>
	<polygon class="st1" points="374.2,155.8 378.5,169.2 392.6,169.2 381.2,177.4 385.6,190.8 374.2,182.6 362.8,190.8 367.1,177.4 
		355.7,169.2 369.8,169.2 	"/>
	<polygon class="st1" points="358.5,214 362.8,227.4 376.9,227.4 365.5,235.6 369.9,249 358.5,240.7 347.1,249 351.4,235.6 
		340,227.4 354.1,227.4 	"/>
	<polygon class="st1" points="316.3,255.9 320.6,269.3 334.7,269.3 323.3,277.6 327.7,291 316.3,282.7 304.9,291 309.2,277.6 
		297.8,269.3 311.9,269.3 	"/>
	<polygon class="st1" points="259.1,271.2 263.5,284.6 277.5,284.6 266.2,292.9 270.5,306.3 259.1,298 247.7,306.3 252.1,292.9 
		240.7,284.6 254.8,284.6 	"/>
	<polygon class="st1" points="196.1,271.6 200.5,285 214.6,285 203.2,293.3 207.5,306.7 196.1,298.4 184.7,306.7 189.1,293.3 
		177.7,285 191.8,285 	"/>
	<polygon class="st1" points="128.3,271.6 132.6,285 146.7,285 135.3,293.3 139.7,306.7 128.3,298.4 116.9,306.7 121.3,293.3 
		109.9,285 123.9,285 	"/>
	<polygon class="st1" points="143.9,154.7 148.3,168.2 162.5,168.2 151,176.6 155.4,190.1 143.9,181.8 132.4,190.1 136.8,176.6 
		125.3,168.2 139.5,168.2 	"/>
</g>
<g id="Calque_2">
	<g>
		<title>Layer 1</title>
		<g id="layer1">
			<g id="g27">
				<path id="path29" class="st2" d="M346.4,166.7l-15.2-5.1c-1.9-7.8-4.9-15.2-9-21.8l7.1-14.3c-4.9-6.5-10.6-12.2-17.1-17.1
					l-14.3,7.1c-6.6-4.1-14-7.2-21.8-9l-5.1-15.1c-4-0.5-8-0.8-12.1-0.8c-4.1,0-8.1,0.3-12.1,0.8l-5.1,15.1
					c-7.8,1.8-15.2,4.9-21.8,9l-14.3-7.1c-6.5,4.9-12.2,10.6-17.1,17.1l7.1,14.3c-4.1,6.6-7.2,14-9,21.8l-15.2,5.1
					c-0.5,4-0.8,8-0.8,12.1c0,4.1,0.3,8.1,0.8,12.1l15.2,5.1c1.8,7.8,4.9,15.2,9,21.8l-7.1,14.3c4.9,6.5,10.6,12.2,17.1,17.1
					L220,242c6.6,4.1,14,7.2,21.8,9l5.1,15.1c4,0.5,8,0.8,12.1,0.8c4.1,0,8.1-0.3,12.1-0.8l5.1-15.1c7.8-1.8,15.2-4.9,21.8-9
					l14.3,7.1c6.4-4.9,12.2-10.6,17.1-17.1l-7.1-14.3c4.1-6.6,7.2-14,9-21.8l15.2-5.1c0.5-4,0.8-8,0.8-12.1
					C347.2,174.7,346.9,170.7,346.4,166.7z M259,239.1c-33.3,0-60.3-27-60.3-60.3c0-33.3,27-60.3,60.3-60.3s60.3,27,60.3,60.3
					C319.3,212.1,292.3,239.1,259,239.1z"/>
			</g>
		</g>
	</g>
</g>
</svg>
